<?xml version="1.0" standalone="no"?>
<!DOCTYPE svg PUBLIC "-//W3C//DTD SVG 20010904//EN"
 "http://www.w3.org/TR/2001/REC-SVG-20010904/DTD/svg10.dtd">
<svg version="1.0" xmlns="http://www.w3.org/2000/svg"
 width="93.000000pt" height="93.000000pt" viewBox="0 0 93.000000 93.000000"
 preserveAspectRatio="xMidYMid meet">

<g transform="translate(0.000000,93.000000) scale(0.100000,-0.100000)"
fill="#000000" stroke="none">
<path d="M0 465 l0 -465 465 0 465 0 -1 193 0 192 -18 -57 c-62 -192 -236
-318 -441 -318 -261 0 -460 199 -460 459 0 206 125 380 318 442 l57 18 -192 0
-193 1 0 -465z"/>
<path d="M612 911 c140 -45 254 -158 299 -299 l18 -57 0 188 1 187 -187 -1
-188 0 57 -18z"/>
<path d="M333 871 c-105 -39 -199 -125 -250 -230 -26 -51 -28 -66 -28 -171 0
-107 2 -119 29 -175 38 -78 133 -173 211 -211 56 -27 68 -29 175 -29 107 0
119 2 175 29 78 38 173 133 211 211 27 56 29 68 29 175 0 107 -2 119 -29 175
-39 79 -133 173 -211 210 -80 39 -231 46 -312 16z m74 -393 l73 -72 74 73 c67
67 96 81 96 48 0 -17 -152 -167 -170 -167 -22 0 -179 160 -173 176 9 25 27 15
100 -58z"/>
</g>
</svg>
